<svg xmlns="http://www.w3.org/2000/svg" viewBox="0 0 24 24" width="24" height="24" fill="none">
  <!-- Rounded white background container to support both light and dark Google search appearances -->
  <rect x="0" y="0" width="24" height="24" rx="5.5" fill="#ffffff" />
  <!-- Centered black brain icon matching Beyond's branding -->
  <path d="M9.5 2A2.5 2.5 0 0 1 12 4.5v15a2.5 2.5 0 0 1-4.96-.44 2.5 2.5 0 0 1-1.98-3 2.49 2.49 0 0 1 .32-4.96 2.49 2.49 0 0 1-.32-4.96 2.5 2.5 0 0 1 1.98-3A2.5 2.5 0 0 1 9.5 2Z" fill="none" stroke="#000000" stroke-width="1.8" stroke-linecap="round" stroke-linejoin="round" />
  <path d="M14.5 2a2.5 2.5 0 0 1 2.46 2.6 2.5 2.5 0 0 1 1.98 3 2.49 2.49 0 0 1-.32 4.96 2.49 2.49 0 0 1 .32 4.96 2.5 2.5 0 0 1-1.98 3 2.5 2.5 0 0 1-2.46 2.6V4.5a2.5 2.5 0 0 1 2.46-2.5Z" fill="none" stroke="#000000" stroke-width="1.8" stroke-linecap="round" stroke-linejoin="round" />
</svg>
